# xmcd
# Copyright (C) 1995-1998 Ti Kan
#
# Track frame offsets:
#       150
#       17978
#       32312
#       50434
#       66250
#       82570
#       98182
#       113094
#       127437
#       144621
#       159952
#       173637
#       190533
#       204051
#
# Disc length: 2907 seconds
#
# Revision: 0
# Processed by: cddbd v1.5PL3 Copyright (c) Steve Scherf et al.
# Submitted via: CD-Transfer v1.0
#
DISCID=ab0b590e
DTITLE=Two Generations - Let It Out
DYEAR=2004
DGENRE=
TTITLE0=Shadows
TTITLE1=Skydance
TTITLE2=Stars Like Eyes
TTITLE3=Color Or Religion
TTITLE4=Get Away
TTITLE5=It Must Be Love
TTITLE6=Scream In The Night
TTITLE7=Hold On
TTITLE8=Wings Over Wasteland
TTITLE9=Like An Angel
TTITLE10=Let It Out
TTITLE11=Turn On The Radio
TTITLE12=Want You Baby
TTITLE13=Love Is A Heartbreaker
EXTD=
EXTT0=
EXTT1=
EXTT2=
EXTT3=
EXTT4=
EXTT5=
EXTT6=
EXTT7=
EXTT8=
EXTT9=
EXTT10=
EXTT11=
EXTT12=
EXTT13=
PLAYORDER=
